<svg class="text-red-600 hover:fill-current text-red-600"  enable-background="new 0 0 24 24" height="20" viewBox="0 0 24 24" width="30" xmlns="http://www.w3.org/2000/svg"><g>
    <path fill="white"  d="m20.5 24c-.276 0-.5-.224-.5-.5v-18c0-.827-.673-1.5-1.5-1.5h-18c-.276 0-.5-.224-.5-.5s.224-.5.5-.5h18c1.379 0 2.5 1.122 2.5 2.5v18c0 .276-.224.5-.5.5z"/></g><g>
    <path fill="white" d="m23.5 21h-18c-1.379 0-2.5-1.121-2.5-2.5v-18c0-.276.224-.5.5-.5s.5.224.5.5v18c0 .827.673 1.5 1.5 1.5h18c.276 0 .5.224.5.5s-.224.5-.5.5z"/></g><g>
    <path fill="white" d="m8 11c-1.103 0-2-.897-2-2s.897-2 2-2 2 .897 2 2-.897 2-2 2zm0-3c-.552 0-1 .449-1 1s.448 1 1 1 1-.449 1-1-.448-1-1-1z"/></g><g>
    <path fill="white" d="m3.5 18c-.128 0-.256-.049-.354-.146-.195-.195-.195-.512 0-.707l2.79-2.79c.566-.566 1.561-.566 2.127 0l1.437 1.436 4.937-4.937c.564-.566 1.562-.566 2.127 0l4.29 4.29c.195.195.195.512 0 .707s-.512.195-.707 0l-4.29-4.29c-.189-.188-.523-.188-.713 0l-5.29 5.29c-.195.195-.512.195-.707 0l-1.79-1.79c-.188-.188-.525-.188-.713 0l-2.79 2.79c-.098.098-.226.147-.354.147z"/></g></svg>