<?xml version="1.0" encoding="iso-8859-1"?>
<!-- Generator: Adobe Illustrator 19.0.0, SVG Export Plug-In . SVG Version: 6.00 Build 0)  -->
<svg version="1.1" id="Capa_1" xmlns="http://www.w3.org/2000/svg" xmlns:xlink="http://www.w3.org/1999/xlink" x="0px" y="0px"
	 viewBox="0 0 480.026 480.026" style="enable-background:new 0 0 480.026 480.026;" xml:space="preserve">
<g>
	<g>
		<g>
			<path d="M104.013,40.007c0-13.255-10.745-24-24-24H67.621C58.816,0.724,39.289-4.527,24.007,4.278
				C14.093,9.989,7.993,20.566,8.013,32.007v8c0,13.255,10.745,24,24,24h48C93.268,64.007,104.013,53.262,104.013,40.007z
				 M24.013,40.007v-8c-0.028-8.806,7.088-15.967,15.893-15.995c6.793-0.022,12.854,4.263,15.099,10.674
				c1.134,3.189,4.152,5.319,7.536,5.32h17.472c4.418,0,8,3.582,8,8s-3.582,8-8,8h-48C27.595,48.007,24.013,44.425,24.013,40.007z"
				/>
			<path d="M312.013,64.007h48c13.255,0.015,24.012-10.719,24.026-23.974c0.013-11.814-8.574-21.881-20.242-23.73
				c-8.58-15.345-27.974-20.829-43.319-12.249c-5.137,2.872-9.377,7.112-12.249,12.249c-13.091,2.075-22.022,14.37-19.946,27.462
				C290.133,55.433,300.199,64.02,312.013,64.007z M312.013,32.007h1.472c3.384-0.001,6.402-2.131,7.536-5.32
				c2.865-8.28,11.899-12.67,20.179-9.805c4.599,1.591,8.214,5.206,9.805,9.805c1.134,3.189,4.152,5.319,7.536,5.32h1.472
				c4.418,0,8,3.582,8,8s-3.582,8-8,8h-48c-4.418,0-8-3.582-8-8S307.595,32.007,312.013,32.007z"/>
			<path d="M463.213,256.223c-0.312-5.432-0.848-10.936-1.6-16.352c-0.599-4.379-4.633-7.443-9.012-6.844
				c-4.378,0.599-7.443,4.633-6.844,9.012c0.68,5,1.176,10.088,1.472,15.112c0.207,3.579,2.77,6.584,6.272,7.352
				c0.714,0.157,1.446,0.214,2.176,0.168c4.411-0.249,7.786-4.027,7.537-8.438C463.214,256.23,463.213,256.226,463.213,256.223z"/>
			<path d="M243.469,463.775l0.032,0.024c-5.04,0.24-10.152,0.296-15.2,0.144c-4.415-0.159-8.124,3.292-8.282,7.707
				c-0.149,4.151,2.903,7.726,7.026,8.229c0.256,0,0.52,0.056,0.8,0.064c5.44,0.152,10.968,0.096,16.424-0.168
				c4.418-0.221,7.821-3.982,7.6-8.4C251.648,466.957,247.887,463.554,243.469,463.775z"/>
			<path d="M452.729,304.135c-0.052-0.011-0.104-0.022-0.155-0.032c-4.387-0.873-8.663,1.938-9.6,6.312
				c-1.048,4.8-2.296,9.6-3.688,14.32c-1.262,4.234,1.148,8.69,5.382,9.951c0.001,0,0.001,0,0.002,0.001
				c0.192,0.056,0.392,0.104,0.584,0.144c4.088,0.89,8.171-1.519,9.368-5.528c1.504-5.056,2.848-10.264,3.936-15.256l0.176-0.632
				C459.638,309.194,456.949,305.039,452.729,304.135z"/>
			<path d="M321.613,460.359c-1.359-4.2-5.862-6.505-10.064-5.152c-4.8,1.552-9.736,2.928-14.616,4.096
				c-4.323,0.913-7.087,5.158-6.174,9.481s5.158,7.087,9.481,6.174c0.133-0.028,0.266-0.06,0.397-0.095
				c5.288-1.256,10.608-2.752,15.816-4.432c4.205-1.355,6.516-5.862,5.161-10.068C321.614,460.362,321.614,460.36,321.613,460.359z"
				/>
			<path d="M446.684,189.508c0.355-1.632,0.191-3.335-0.471-4.869c-2.152-4.984-4.536-9.968-7.096-14.824
				c-2.085-3.896-6.933-5.364-10.828-3.279c-3.862,2.067-5.344,6.856-3.324,10.743c2.4,4.488,4.568,9.096,6.552,13.696
				c1.023,2.37,3.126,4.1,5.648,4.648C441.482,196.563,445.744,193.825,446.684,189.508z"/>
			<path d="M371.709,423.383l0.008,0.032c-4,3.088-8.152,6.072-12.368,8.848c-3.649,2.491-4.587,7.469-2.095,11.118
				c2.433,3.563,7.253,4.555,10.895,2.242c4.552-3.008,9.048-6.224,13.36-9.6c3.417-2.801,3.915-7.842,1.114-11.259
				C379.929,421.479,375.137,420.872,371.709,423.383z"/>
			<path d="M92.829,140.071c-3.535-2.651-8.549-1.935-11.2,1.6l-0.016,0.024c-3.28,4.384-6.4,8.944-9.336,13.552
				c-2.362,3.736-1.248,8.678,2.488,11.04c3.736,2.362,8.678,1.248,11.04-2.488c2.688-4.256,5.6-8.472,8.624-12.528
				C97.08,147.736,96.364,142.722,92.829,140.071z"/>
			<path d="M428.747,370.415c-3.674-2.454-8.642-1.464-11.096,2.21c-0.08,0.12-0.156,0.241-0.23,0.365l0.032,0.032
				c-2.688,4.264-5.6,8.488-8.6,12.536c-2.85,3.376-2.423,8.424,0.953,11.273c3.376,2.85,8.424,2.423,11.273-0.953
				c0.206-0.244,0.398-0.501,0.574-0.768c3.264-4.376,6.4-8.944,9.304-13.6C433.411,377.837,432.421,372.869,428.747,370.415z"/>
			<path d="M177.613,450.199v-0.032c-4.656-1.888-9.312-4-13.84-6.256c-3.957-1.973-8.763-0.365-10.736,3.592
				c-1.973,3.957-0.365,8.763,3.592,10.736c4.896,2.4,9.936,4.712,14.976,6.752c0.42,0.178,0.857,0.315,1.304,0.408
				c4.335,0.855,8.542-1.966,9.397-6.301C183.036,455.396,181.081,451.688,177.613,450.199z"/>
			<path d="M78.269,360.255c-2.4-4.472-4.584-9.08-6.584-13.688c-1.767-4.054-6.486-5.907-10.54-4.14s-5.907,6.486-4.14,10.54
				c2.168,4.992,4.568,9.976,7.136,14.808c2.067,3.902,6.904,5.391,10.808,3.328v-0.032
				C78.853,369.001,80.339,364.159,78.269,360.255C78.269,360.255,78.269,360.255,78.269,360.255z"/>
			<path d="M57.309,295.543c-0.704-5.024-1.208-10.104-1.504-15.104c-0.258-4.418-4.05-7.79-8.468-7.532
				c-4.418,0.258-7.79,4.05-7.532,8.468h0.048c0.328,5.424,0.872,10.936,1.6,16.368c0.608,4.378,4.649,7.435,9.028,6.828
				C54.86,303.964,57.917,299.922,57.309,295.543z"/>
			<path d="M109.181,403.359c-2.987-3.256-8.047-3.474-11.303-0.487c-3.256,2.987-3.474,8.047-0.487,11.303
				c0.055,0.059,0.11,0.118,0.166,0.176c3.752,4,7.704,7.84,11.744,11.496c1.031,0.94,2.292,1.592,3.656,1.888
				c4.32,0.926,8.573-1.825,9.499-6.145c0.598-2.787-0.333-5.682-2.443-7.599C116.309,410.615,112.653,407.031,109.181,403.359z"/>
			<path d="M48.517,207.439c-1.56,5.208-2.944,10.56-4.112,15.896l-0.184,0.848c-0.941,4.317,1.795,8.579,6.112,9.52
				c4.317,0.941,8.579-1.795,9.52-6.112l0.184-0.84c1.08-4.944,2.36-9.888,3.808-14.712c1.27-4.233-1.131-8.694-5.364-9.964
				C54.249,200.805,49.787,203.206,48.517,207.439z"/>
			<path d="M448.013,88.007h-12.392c-8.805-15.283-28.332-20.534-43.615-11.729c-9.913,5.711-16.014,16.289-15.993,27.729v8
				c0,13.255,10.745,24,24,24h48c13.255,0,24-10.745,24-24S461.268,88.007,448.013,88.007z M448.013,120.007h-48
				c-4.418,0-8-3.582-8-8v-8c-0.028-8.806,7.088-15.967,15.893-15.995c6.793-0.022,12.854,4.263,15.099,10.675
				c1.134,3.189,4.152,5.319,7.536,5.32h17.472c4.418,0,8,3.582,8,8S452.431,120.007,448.013,120.007z"/>
			<path d="M334.773,143.255c0.789-2.336,1.207-4.782,1.24-7.248c0-13.255-10.745-24-24-24h-33.968l-14.344-50.2
				c-0.773-2.761-2.964-4.898-5.744-5.6l-32-8c-4.284-1.079-8.633,1.519-9.712,5.803c-0.326,1.294-0.323,2.648,0.008,3.941
				l13.512,54.056h-46.736l-7.592-18.976c-1.216-3.034-4.155-5.023-7.424-5.024h-32c-4.418-0.003-8.003,3.576-8.006,7.994
				c-0.001,1.022,0.194,2.034,0.574,2.982l14.816,37.024l-14.816,37.024c-0.217,0.562-0.37,1.147-0.456,1.744
				c-19.687,25.342-30.852,56.263-31.896,88.336c-0.111,0.448-0.178,0.907-0.2,1.368c0,0.368,0.064,0.704,0.088,1.08
				c0,0.8-0.104,1.6-0.104,2.448c-0.004,36.364,13.098,71.511,36.904,99c2.4,2.832,4.8,5.528,7.32,8.048
				c0.384,0.392,0.8,0.76,1.184,1.144c2.776,2.728,5.6,5.296,8.432,7.664c1.936,1.648,4,3.2,5.984,4.72l1.2,0.904
				c66.823,50.365,161.823,37.023,212.188-29.8c12.46-16.531,21.4-35.44,26.268-55.56c5.929-19.955,6.735-41.083,2.344-61.432
				C391.055,202.412,368.321,166.564,334.773,143.255z M159.445,133.031l-11.616-29.024h14.768l7.592,18.976
				c1.216,3.034,4.155,5.023,7.424,5.024h62.4c4.418,0,8-3.582,8-8c0-0.655-0.081-1.308-0.24-1.944l-12.76-51.056l14.576,3.64
				l14.736,51.56c0.982,3.432,4.118,5.798,7.688,5.8h40c4.418,0,8,3.582,8,8s-3.582,8-8,8h-40c-3.57,0.002-6.706,2.368-7.688,5.8
				l-14.712,51.56l-14.576,3.64l12.76-51.056c1.074-4.286-1.53-8.631-5.816-9.704c-0.643-0.161-1.305-0.242-1.968-0.24h-62.4
				c-3.269,0.001-6.208,1.99-7.424,5.024l-7.592,18.976h-14.768l11.616-29.024C160.201,137.076,160.181,134.945,159.445,133.031z
				 M216.013,398.807c-9.842-1.917-19.42-5.006-28.528-9.2c-20.749-10.347-38.529-25.795-51.672-44.896
				c-13.429-22.031-21.371-46.965-23.16-72.704h7.36c13.255,0,24-10.745,24-24c0-4.418,3.582-8,8-8h29.336l10.664,8
				c10.048,7.575,15.969,19.417,16,32v24c0,2.518-1.186,4.889-3.2,6.4l-17.336,13c-7.071,5.3-8.507,15.328-3.207,22.399
				c0.81,1.08,1.753,2.054,2.807,2.897l22.936,18.344c3.803,3.031,6.012,7.633,6,12.496V398.807z M248.013,404.007
				c-5.349-0.029-10.691-0.371-16-1.024v-23.44c0.026-9.726-4.394-18.931-12-24.992l-22.928-18.344l17.328-13
				c6.028-4.546,9.58-11.651,9.6-19.2v-24c-0.043-17.616-8.332-34.196-22.4-44.8l-12.8-9.6c-1.385-1.039-3.069-1.6-4.8-1.6h-32
				c-13.255,0-24,10.745-24,24c0,4.418-3.582,8-8,8h-7.464c2.373-26.267,12.322-51.28,28.64-72h26.824
				c3.269-0.001,6.208-1.99,7.424-5.024l7.592-18.976h46.736l-13.512,54.056c-1.074,4.286,1.53,8.631,5.816,9.704
				c0.636,0.159,1.289,0.24,1.944,0.24c0.655-0.001,1.308-0.081,1.944-0.24l32-8c2.78-0.702,4.971-2.839,5.744-5.6l14.344-50.16
				h33.968c4.681-0.014,9.255-1.406,13.152-4c14.039,9.696,26.131,21.943,35.648,36.104c-0.288,0-0.568-0.104-0.856-0.104h-7.944
				c-13.255,0-24,10.745-24,24c0,4.418-3.582,8-8,8h-16.312c-7.293-0.015-14.193,3.303-18.736,9.008l-19.888,24.856
				c-6.557,8.15-7.056,19.615-1.232,28.304l20.76,31.144c4.451,6.677,11.944,10.687,19.968,10.688h7.44c4.418,0,8,3.582,8,8v1.368
				c-0.018,6.371,2.514,12.484,7.032,16.976l6.4,6.4c2.398,2.381,5.275,4.224,8.44,5.408
				C316.662,390.434,283.02,403.998,248.013,404.007z M379.021,304.111c-5.164,15.652-12.534,30.486-21.888,44.056
				c-1.368,2.03-3.572,3.341-6.008,3.576c-2.371,0.244-4.725-0.6-6.4-2.296l-6.4-6.4c-1.493-1.509-2.324-3.549-2.312-5.672v-1.368
				c0-13.255-10.745-24-24-24h-7.44c-2.674,0-5.172-1.335-6.656-3.56l-20.76-31.144c-1.935-2.899-1.77-6.718,0.408-9.44
				l19.888-24.848c1.517-1.9,3.816-3.007,6.248-3.008h16.312c13.255,0,24-10.745,24-24c0-4.418,3.582-8,8-8h8
				c2.715,0.055,5.233,1.432,6.744,3.688c7.311,10.455,12.56,22.209,15.464,34.632C385.432,265.588,384.339,285.322,379.021,304.111
				z"/>
		</g>
	</g>
</g>
<g>
</g>
<g>
</g>
<g>
</g>
<g>
</g>
<g>
</g>
<g>
</g>
<g>
</g>
<g>
</g>
<g>
</g>
<g>
</g>
<g>
</g>
<g>
</g>
<g>
</g>
<g>
</g>
<g>
</g>
</svg>
